# xmcd
#
# Track frame offsets: 
#        150
#        11313
#        22741
#        33447
#        45189
#        55897
#        70345
#        80624
#        91647
#        103814
#        116689
#        126590
#        137083
#        150327
#        163394
#        175753
#        187727
#
# Disc length: 2677 seconds
#
# Revision: 0
# Processed by: cddbd v1.5.2PL0 Copyright (c) Steve Scherf et al.
# Submitted via: ExactAudioCopy v0.95b4
#
DISCID=ce0a7311
DTITLE=Junior Parker - The Collection
DYEAR=2003
DGENRE=Blues
TTITLE0=Next Time You See Me
TTITLE1=Sweet Home Chicago
TTITLE2=Five Long Years
TTITLE3=Driving Wheel
TTITLE4=Annie Get Your Yo-Yo
TTITLE5=These Kind Of Blues (Part 1)
TTITLE6=Yonder's Wall
TTITLE7=Tin Pan Alley
TTITLE8=Barefoot Rock
TTITLE9=Strange Things Happening
TTITLE10=Wish Me Well
TTITLE11=Cracked Up Over You
TTITLE12=Baby, Please
TTITLE13=Sometimes I Wonder
TTITLE14=Country Girl
TTITLE15=If I Had Your Love
TTITLE16=Hurtin` Inside
EXTD=
EXTT0=
EXTT1=
EXTT2=
EXTT3=
EXTT4=
EXTT5=
EXTT6=
EXTT7=
EXTT8=
EXTT9=
EXTT10=
EXTT11=
EXTT12=
EXTT13=
EXTT14=
EXTT15=
EXTT16=
PLAYORDER=
